# xmcd
#
# Track frame offsets: 
#        150
#        22745
#        40572
#        61861
#        81370
#        97191
#        115119
#        134484
#        156184
#        175110
#        190668
#        208254
#        227360
#        248470
#        267404
#        286531
#
# Disc length: 4050 seconds
#
# Revision: 1
# Processed by: cddbd v1.5.2PL0 Copyright (c) Steve Scherf et al.
# Submitted via: ExactAudioCopyFreeDBPlugin 1.0
#
DISCID=c90fd010
DTITLE=群星 - TEST-CD试音极品23CDB
DYEAR=2014
DGENRE=stereo
TTITLE0=心雨
TTITLE1=月光小夜曲
TTITLE2=秋水伊人
TTITLE3=最爱是谁
TTITLE4=星夜的离别
TTITLE5=红豆
TTITLE6=月儿弯弯照九州
TTITLE7=我曾经爱过这样的人
TTITLE8=月雨绵绵
TTITLE9=南海姑娘
TTITLE10=我可以抱你吗
TTITLE11=味道
TTITLE12=明天你是否依然爱我
TTITLE13=因为爱情
TTITLE14=婚誓
TTITLE15=茉莉花
EXTD=
EXTT0=
EXTT1=
EXTT2=
EXTT3=
EXTT4=
EXTT5=
EXTT6=
EXTT7=
EXTT8=
EXTT9=
EXTT10=
EXTT11=
EXTT12=
EXTT13=
EXTT14=
EXTT15=
PLAYORDER=
